<?xml version="1.0" encoding="utf-8"?>
<!-- Generator: Adobe Illustrator 19.1.0, SVG Export Plug-In . SVG Version: 6.00 Build 0)  -->
<svg version="1.1" xmlns="http://www.w3.org/2000/svg" xmlns:xlink="http://www.w3.org/1999/xlink" x="0px" y="0px"
	 viewBox="0 0 1024 1024" style="enable-background:new 0 0 1024 1024;" xml:space="preserve">
<style type="text/css">
	.st0{fill:none;}
	.st1{fill:#FFFFFF;}
</style>
<g id="Ebene_2">
	<path id="_x31_0_1_" class="st0" d="M1024,768c0,141.4-114.6,256-256,256H256C114.6,1024,0,909.4,0,768V256C0,114.6,114.6,0,256,0
		h512c141.4,0,256,114.6,256,256V768z"/>
</g>
<g id="Ebene_1">
	<g>
		<g>
			<path class="st1" d="M510,871.1c-51.9,0-87.9-38.9-87.9-90.9c0-53.9,36.9-90.9,89.9-90.9c52.9,0,87.8,37,88.8,90.9
				c0,51.9-34.9,90.9-88.8,90.9H510z M455.1,639.5l-21.9-452.3h157.8l-22,452.3H455.1z"/>
		</g>
	</g>
</g>
</svg>
