<?xml version="1.0" encoding="utf-8"?>
<!-- Generator: Adobe Illustrator 19.1.0, SVG Export Plug-In . SVG Version: 6.00 Build 0)  -->
<svg version="1.1" xmlns="http://www.w3.org/2000/svg" xmlns:xlink="http://www.w3.org/1999/xlink" x="0px" y="0px"
	 viewBox="0 0 1024 1024" style="enable-background:new 0 0 1024 1024;" xml:space="preserve">
<style type="text/css">
	.st0{fill:none;}
	.st1{clip-path:url(#SVGID_2_);fill:#FFFFFF;}
</style>
<g id="Ebene_2">
	<path id="_x38__2_" class="st0" d="M1024,768c0,141.4-114.6,256-256,256H256C114.6,1024,0,909.4,0,768V256C0,114.6,114.6,0,256,0
		h512c141.4,0,256,114.6,256,256V768z"/>
</g>
<g id="Ebene_1">
	<g>
		<g id="Route">
			<g>
				<defs>
					<rect id="SVGID_1_" x="147.6" y="152.1" width="730.7" height="737.3"/>
				</defs>
				<clipPath id="SVGID_2_">
					<use xlink:href="#SVGID_1_"  style="overflow:visible;"/>
				</clipPath>
				<path class="st1" d="M293.7,439.9c0-9.5,7.7-17.2,17.2-17.2h285.7v123.7l281.2-197.2L596.5,152.1v124.5H310.9
					c-90.1,0-163.3,73.3-163.3,163.4v449.4h146.2V439.9z M293.7,439.9"/>
			</g>
		</g>
	</g>
</g>
</svg>
