<?xml version="1.0" encoding="utf-8"?>
<!-- Generator: Adobe Illustrator 19.1.0, SVG Export Plug-In . SVG Version: 6.00 Build 0)  -->
<svg version="1.1" xmlns="http://www.w3.org/2000/svg" xmlns:xlink="http://www.w3.org/1999/xlink" x="0px" y="0px"
	 viewBox="0 0 1024 1024" style="enable-background:new 0 0 1024 1024;" xml:space="preserve">
<style type="text/css">
	.st0{fill:none;}
	.st1{fill:#FFFFFF;}
</style>
<g id="Ebene_2">
	<path id="_x32__2_" class="st0" d="M1024,768c0,141.4-114.6,256-256,256H256C114.6,1024,0,909.4,0,768V256C0,114.6,114.6,0,256,0
		h512c141.4,0,256,114.6,256,256V768z"/>
</g>
<g id="Ebene_1">
	<g>
		<path id="Anruf" class="st1" d="M722.5,890.8c16.9,0,168.4-112,168.4-126.4c0-14.2-169.5-121-184.2-121
			c-14.6,0-63.8,59.1-77.1,65.5c-13.3,6.6-96.2,4.3-188.6-88.1c-92.4-92.3-124-198.7-124-215.3c0-16.7,77-68.2,79.2-80.4
			c2.1-12.1-101.5-192-118.4-192c-16.8,0-144.7,155.4-144.7,168.4s11.8,179.5,222.7,390.4C566.7,902.8,705.6,890.7,722.5,890.8z"/>
	</g>
</g>
</svg>
