<?xml version="1.0" encoding="utf-8"?>
<!-- Generator: Adobe Illustrator 19.1.0, SVG Export Plug-In . SVG Version: 6.00 Build 0)  -->
<svg version="1.1" xmlns="http://www.w3.org/2000/svg" xmlns:xlink="http://www.w3.org/1999/xlink" x="0px" y="0px"
	 viewBox="0 0 1024 1024" style="enable-background:new 0 0 1024 1024;" xml:space="preserve">
<style type="text/css">
	.st0{fill:none;}
	.st1{fill:#FFFFFF;}
</style>
<g id="Ebene_2">
	<path id="_x37__3_" class="st0" d="M1024,768c0,141.4-114.6,256-256,256H256C114.6,1024,0,909.4,0,768V256C0,114.6,114.6,0,256,0
		h512c141.4,0,256,114.6,256,256V768z"/>
</g>
<g id="Ebene_1">
	<g>
		<g>
			<path class="st1" d="M683.4,835.2c-63.8,28.7-119.2,38.3-195.8,38.3c-176.6,0-332-126.6-332-335.2c0-217.1,158.6-405.4,398-405.4
				c188.3,0,322.4,128.7,322.4,307.5c0,156.4-87.3,254.3-202.2,254.3c-50,0-86.2-26.6-91.5-81.9h-2.1
				c-34.1,53.2-80.9,81.9-138.4,81.9c-68.1,0-119.2-52.1-119.2-139.4c0-130.9,96.8-247.9,250.1-247.9c46.8,0,100,11.7,126.6,25.5
				l-31.9,197.9c-10.6,62.8-3.2,91.5,26.6,92.6c45.8,2.1,103.2-56.4,103.2-179.8c0-139.4-89.4-245.8-254.3-245.8
				c-163.9,0-305.4,126.6-305.4,330.9c0,178.8,112.8,278.8,271.4,278.8c54.3,0,112.8-11.7,155.4-33L683.4,835.2z M588.7,395.7
				c-8.5-2.1-20.2-4.3-33-4.3c-70.3,0-125.6,69.2-125.6,151.1c0,40.4,18.1,66,53.2,66c39.4,0,80.9-50,90.5-111.7L588.7,395.7z"/>
		</g>
	</g>
</g>
</svg>
