<?xml version="1.0" encoding="utf-8"?>
<!-- Generator: Adobe Illustrator 19.1.0, SVG Export Plug-In . SVG Version: 6.00 Build 0)  -->
<svg version="1.1" xmlns="http://www.w3.org/2000/svg" xmlns:xlink="http://www.w3.org/1999/xlink" x="0px" y="0px"
	 viewBox="0 0 1024 1024" style="enable-background:new 0 0 1024 1024;" xml:space="preserve">
<style type="text/css">
	.st0{fill:none;}
	.st1{fill:#FFFFFF;}
</style>
<g id="Ebene_2">
	<path id="_x38__4_" class="st0" d="M1024,768c0,141.4-114.6,256-256,256H256C114.6,1024,0,909.4,0,768V256C0,114.6,114.6,0,256,0
		h512c141.4,0,256,114.6,256,256V768z"/>
</g>
<g id="Ebene_1">
	<g>
		<g>
			<path class="st1" d="M511,314.5c50.8,0,81.3-34.1,81-75.7c-1.2-42.7-31-75.2-79.7-75c-48.8,0.2-80.3,33.3-80.3,76
				C432.2,281.4,463.3,315,511,314.5L511,314.5z"/>
			<polygon class="st1" points="592.6,775.2 590.3,373.8 383.3,375.1 383.5,462.9 439.8,462.7 441.6,776.2 381.8,776.3 382.3,860.2 
				642.2,858.7 641.8,774.9 			"/>
		</g>
	</g>
</g>
</svg>
