<?xml version="1.0" encoding="utf-8"?>
<!-- Generator: Adobe Illustrator 19.1.0, SVG Export Plug-In . SVG Version: 6.00 Build 0)  -->
<svg version="1.1" xmlns="http://www.w3.org/2000/svg" xmlns:xlink="http://www.w3.org/1999/xlink" x="0px" y="0px"
	 viewBox="0 0 1024 1024" style="enable-background:new 0 0 1024 1024;" xml:space="preserve">
<style type="text/css">
	.st0{fill:none;}
	.st1{fill:#FFFFFF;}
</style>
<g id="Ebene_2">
	<path id="_x31_2_3_" class="st0" d="M1024,768c0,141.4-114.6,256-256,256H256C114.6,1024,0,909.4,0,768V256C0,114.6,114.6,0,256,0
		h512c141.4,0,256,114.6,256,256V768z"/>
</g>
<g id="Ebene_1">
	<g>
		<g>
			<path class="st1" d="M765.9,831.3c-35.4,21.5-95.6,42.9-164.3,42.9c-97.7,0-185.8-38.7-242.7-110.6
				c-34.4-39.7-58-93.4-67.7-158.9h-68.7v-66.6h60.1c0-5.4,0-10.7,0-16.1c0-14,1.1-27.9,2.2-39.7h-62.3v-66.6h71.9
				c12.9-66.6,41.9-121.3,80.5-163.2c58-63.4,136.4-99.9,232-99.9c64.4,0,118.1,16.1,153.5,33.3l-26.8,98.8
				c-27.9-14-72-27.9-120.3-27.9c-53.7,0-100.9,19.3-136.4,59.1c-22.6,23.6-38.7,59.1-47.3,99.9h281.3v66.6H416.9
				c-2.1,11.8-2.1,24.7-2.1,38.7c0,6.4,0,10.7,0,17.2h296.4v66.6H426.5c7.5,45.1,23.6,80.5,46.2,104.2c36.5,39.7,88,58,143.9,58
				c52.6,0,102-18.3,126.7-31.1L765.9,831.3z"/>
		</g>
	</g>
</g>
</svg>
