<?xml version="1.0" encoding="utf-8"?>
<!-- Generator: Adobe Illustrator 19.1.0, SVG Export Plug-In . SVG Version: 6.00 Build 0)  -->
<svg version="1.1" xmlns="http://www.w3.org/2000/svg" xmlns:xlink="http://www.w3.org/1999/xlink" x="0px" y="0px"
	 viewBox="0 0 1024 1024" style="enable-background:new 0 0 1024 1024;" xml:space="preserve">
<style type="text/css">
	.st0{fill:none;}
	.st1{clip-path:url(#SVGID_2_);fill:#FFFFFF;}
	.st2{fill:#FFFFFF;}
</style>
<g id="Ebene_2">
	<path id="_x31_4_3_" class="st0" d="M1024,768c0,141.4-114.6,256-256,256H256C114.6,1024,0,909.4,0,768V256C0,114.6,114.6,0,256,0
		h512c141.4,0,256,114.6,256,256V768z"/>
</g>
<g id="Ebene_1">
	<g id="Veranstaltungen">
		<g>
			<defs>
				<rect id="SVGID_1_" x="132.1" y="117.3" width="757.8" height="797.7"/>
			</defs>
			<clipPath id="SVGID_2_">
				<use xlink:href="#SVGID_1_"  style="overflow:visible;"/>
			</clipPath>
			<path class="st1" d="M703.7,280.8c29.6,0,53.6-23.9,53.6-53.6V171c0-29.7-23.9-53.7-53.6-53.7S650,141.2,650,171v56.1
				C650,256.9,674,280.8,703.7,280.8L703.7,280.8z M703.7,280.8"/>
			<path class="st1" d="M894.4,210.3h-108v27.3c0,45.1-36.6,81.8-81.8,81.8s-81.8-36.7-81.8-81.8v-27.3H404.8v27.3
				c0,45.1-36.6,81.8-81.8,81.8c-45.1,0-81.8-36.7-81.8-81.8v-27.3l-109.1-1.4v682.8h708.7l54.5-0.2L894.4,210.3z M840.8,837.2
				H186.6V401.1h654.2V837.2z M840.8,837.2"/>
		</g>
		<path class="st2" d="M322.2,280.8c29.6,0,53.6-23.9,53.6-53.6V171c0-29.8-24-53.7-53.6-53.7c-29.8,0-53.8,23.9-53.8,53.7v56.1
			C268.4,256.9,292.4,280.8,322.2,280.8L322.2,280.8z M322.2,280.8"/>
		<rect x="404.9" y="459.5" class="st2" width="86" height="75.8"/>
		<rect x="543.8" y="459.5" class="st2" width="85.9" height="75.8"/>
		<rect x="672.6" y="459.5" class="st2" width="85.9" height="75.8"/>
		<rect x="404.9" y="585.5" class="st2" width="86" height="75.8"/>
		<rect x="543.8" y="585.5" class="st2" width="85.9" height="75.8"/>
		<rect x="672.6" y="585.5" class="st2" width="85.9" height="75.8"/>
		<rect x="404.9" y="714" class="st2" width="86" height="75.7"/>
		<rect x="268.4" y="585.5" class="st2" width="86" height="75.8"/>
		<rect x="268.4" y="714" class="st2" width="86" height="75.7"/>
		<rect x="543.8" y="714" class="st2" width="85.9" height="75.7"/>
		<rect x="672.6" y="714" class="st2" width="85.9" height="75.7"/>
	</g>
</g>
</svg>
